<?xml version="1.0" encoding="UTF-8" standalone="no"?>
<svg
   class="svg-icon"
   style="width: 1em; height: 1em;vertical-align: middle;fill: currentColor;overflow: hidden;"
   viewBox="0 0 1024 1024"
   version="1.1"
   id="svg4554"
   sodipodi:docname="view.svg"
   inkscape:version="1.2.2 (b0a8486541, 2022-12-01)"
   xmlns:inkscape="http://www.inkscape.org/namespaces/inkscape"
   xmlns:sodipodi="http://sodipodi.sourceforge.net/DTD/sodipodi-0.dtd"
   xmlns="http://www.w3.org/2000/svg"
   xmlns:svg="http://www.w3.org/2000/svg">
  <defs
     id="defs4558" />
  <sodipodi:namedview
     id="namedview4556"
     pagecolor="#ffffff"
     bordercolor="#000000"
     borderopacity="0.25"
     inkscape:showpageshadow="2"
     inkscape:pageopacity="0.0"
     inkscape:pagecheckerboard="0"
     inkscape:deskcolor="#d1d1d1"
     showgrid="false"
     inkscape:zoom="0.59082031"
     inkscape:cx="478.99504"
     inkscape:cy="513.69256"
     inkscape:window-width="1534"
     inkscape:window-height="831"
     inkscape:window-x="0"
     inkscape:window-y="0"
     inkscape:window-maximized="1"
     inkscape:current-layer="svg4554" />
  <path
     d="M 559.80969,920.09872 H 123.30638 c -15.94136,0 -28.984289,-13.04293 -28.984289,-28.98429 V 132.88557 c 0,-15.94136 13.042929,-28.98429 28.984289,-28.98429 h 626.64021 c 15.94136,0 28.98429,13.04293 28.98429,28.98429 V 323.892 c 0,15.94136 13.04293,28.98428 28.98428,28.98428 15.94136,0 28.98429,-13.04292 28.98429,-28.98428 V 132.88557 c 0,-47.968993 -38.98387,-86.952856 -86.95286,-86.952856 H 123.30638 c -47.968995,0 -86.952857,38.983863 -86.952857,86.952856 v 758.22886 c 0,47.96899 38.983862,86.95286 86.952857,86.95286 h 436.50331 c 15.94136,0 28.98429,-13.04293 28.98429,-28.98429 0,-15.94135 -12.89801,-28.98428 -28.98429,-28.98428 z"
     id="path4550"
     style="stroke-width:1.44921" />
  <path
     d="M 979.50216,914.5917 850.8119,781.69876 c 33.91162,-41.59245 54.34553,-94.77861 54.34553,-152.60226 0,-133.47262 -108.54614,-242.01876 -242.01877,-242.01876 -133.47262,0 -242.01877,108.54614 -242.01877,242.01876 0,133.47263 108.54615,242.01878 242.01877,242.01878 54.7803,0 105.35788,-18.2601 145.93587,-49.12836 L 938.0546,955.02478 c 5.65193,5.79685 13.18784,8.69529 20.72376,8.69529 7.24607,0 14.63706,-2.75351 20.289,-8.26053 11.30383,-11.01403 11.59373,-29.41904 0.4348,-40.86784 z M 662.99374,813.29163 c -101.44499,0 -184.05021,-82.60521 -184.05021,-184.0502 0,-101.445 82.60522,-184.05021 184.05021,-184.05021 101.44499,0 184.05021,82.60521 184.05021,184.05021 0,101.44499 -82.60522,184.0502 -184.05021,184.0502 z M 588.79398,323.892 c 0,-15.94136 -13.04293,-28.98428 -28.98429,-28.98428 H 217.36037 c -15.94135,0 -28.98428,13.04292 -28.98428,28.98428 0,15.94136 13.04293,28.98428 28.98428,28.98428 h 342.44932 c 16.08628,0 28.98429,-13.04292 28.98429,-28.98428 z M 412.71445,485.18954 c 0,-15.94136 -13.04293,-28.98429 -28.98428,-28.98429 h -166.3698 c -15.94135,0 -28.98428,13.04293 -28.98428,28.98429 0,15.94135 13.04293,28.98428 28.98428,28.98428 h 166.3698 c 16.08628,0 28.98428,-12.89801 28.98428,-28.98428 z M 217.36037,617.5028 c -15.94135,0 -28.98428,13.04293 -28.98428,28.98428 0,15.94136 13.04293,28.98428 28.98428,28.98428 h 89.41652 c 15.94136,0 28.98429,-13.04292 28.98429,-28.98428 0,-15.94135 -13.04293,-28.98428 -28.98429,-28.98428 z"
     id="path4552"
     style="stroke-width:1.44921" />
</svg>
